<?xml version="1.0" encoding="UTF-8" standalone="no"?>
<!-- Created with Inkscape (http://www.inkscape.org/) -->

<svg
   xmlns:dc="http://purl.org/dc/elements/1.1/"
   xmlns:cc="http://creativecommons.org/ns#"
   xmlns:rdf="http://www.w3.org/1999/02/22-rdf-syntax-ns#"
   xmlns:svg="http://www.w3.org/2000/svg"
   xmlns="http://www.w3.org/2000/svg"
   xmlns:sodipodi="http://sodipodi.sourceforge.net/DTD/sodipodi-0.dtd"
   xmlns:inkscape="http://www.inkscape.org/namespaces/inkscape"
   id="svg4417"
   version="1.1"
   inkscape:version="0.91 r13725"
   width="1543.125"
   height="177.1875"
   viewBox="0 0 1543.125 177.1875"
   sodipodi:docname="DecorativeDivider104.svg">
  <metadata
     id="metadata4423">
    <rdf:RDF>
      <cc:Work
         rdf:about="">
        <dc:format>image/svg+xml</dc:format>
        <dc:type
           rdf:resource="http://purl.org/dc/dcmitype/StillImage" />
        <dc:title></dc:title>
      </cc:Work>
    </rdf:RDF>
  </metadata>
  <defs
     id="defs4421" />
  <sodipodi:namedview
     pagecolor="#ffffff"
     bordercolor="#666666"
     borderopacity="1"
     objecttolerance="10"
     gridtolerance="10"
     guidetolerance="10"
     inkscape:pageopacity="0"
     inkscape:pageshadow="2"
     inkscape:window-width="1600"
     inkscape:window-height="837"
     id="namedview4419"
     showgrid="false"
     inkscape:zoom="0.67330903"
     inkscape:cx="771.5625"
     inkscape:cy="88.59375"
     inkscape:window-x="-8"
     inkscape:window-y="-8"
     inkscape:window-maximized="1"
     inkscape:current-layer="svg4417" />
  <path
     style="fill:#c2c2c2"
     d="m 445.06276,172.26562 c -4.69186,-15.09668 -4.63149,-32.49754 0.16019,-46.17187 4.58682,-13.08968 4.44718,-12.4552 2.3461,-10.65976 -0.98328,0.84025 -7.69405,4.80452 -14.9128,8.80948 -17.53007,9.72566 -28.63129,17.41507 -34.26067,23.73109 -5.21107,5.84669 -5.83351,5.64253 -2.14845,-0.70469 9.15119,-15.76217 24.96184,-29.24789 41.98832,-35.814 11.59671,-4.47217 12.84686,-4.49857 16.98667,-0.35874 8.84232,8.84232 25.29617,16.9938 38.82431,19.23416 29.03757,4.80883 61.87275,-13.36065 61.87275,-34.23754 0,-16.49442 -19.96749,-31.079407 -54.48306,-39.796428 -15.02405,-3.794371 -27.63,-5.066766 -44.35152,-4.476671 -36.24992,1.279243 -61.09438,9.977672 -123.90411,43.38074 C 274.70522,126.29932 263.47476,129.46627 221.71875,126.63311 171.68194,123.23811 114.88652,110.19503 50.392385,87.287965 40.364057,83.726099 31.789328,83.380383 24.175793,86.230966 9.4067663,91.760635 2.7219639,106.55425 9.6554587,118.36479 c 7.1159153,12.12128 24.9041013,13.58434 32.2699433,2.65417 4.518647,-6.70523 1.663666,-15.42028 -5.865578,-17.90515 -4.536903,-1.49732 -8.160134,-0.44038 -11.654603,3.39978 -3.457087,3.79908 -6.869806,4.05663 -7.366274,0.55592 -0.438308,-3.09062 5.84878,-9.096757 10.964113,-10.474179 2.21586,-0.596662 5.364629,-0.796659 6.997264,-0.444431 14.608418,3.151678 20.903839,17.7194 12.448232,28.80544 -5.229534,6.85638 -11.64482,10.03321 -20.261056,10.03321 -14.663712,0 -27.20101883,-12.25015 -27.17834164,-26.55583 C 0.02645814,97.520306 7.0364603,87.271043 18.445687,81.477821 c 6.035603,-3.064677 6.722982,-3.196571 16.65921,-3.196571 10.278216,0 10.485767,0.04449 25.117977,5.38503 80.186526,29.26686 173.157526,44.28437 209.572356,33.852 9.09836,-2.60657 22.78523,-8.65666 41.34223,-18.274792 38.1858,-19.791765 58.10727,-29.69634 68.55004,-34.081751 52.66076,-22.114756 97.60243,-25.953083 140.92115,-12.035635 18.76535,6.028938 30.59281,12.520081 38.98925,21.398082 13.26458,14.025339 12.91503,30.813596 -0.92524,44.437276 -22.69305,22.33792 -64.69072,24.82556 -96.17724,5.69684 -3.98216,-2.41925 -6.1519,-3.27015 -6.41618,-2.51622 -0.21962,0.62654 -1.62313,5.56886 -3.11892,10.98292 -4.16103,15.06099 -6.01545,26.91267 -5.63734,36.0283 0.1833,4.41897 0.0939,8.03441 -0.19865,8.03433 -0.29256,-6e-5 -1.22026,-2.21497 -2.06157,-4.922 z m 650.30924,-6.02771 c -0.062,-6.51604 -0.8103,-13.41946 -2.0917,-19.30184 -1.9953,-9.16009 -6.3495,-25.00522 -7.0688,-25.72458 -0.2099,-0.20993 -2.7754,1.14948 -5.7009,3.02094 -25.424,16.26354 -60.2098,17.64373 -85.69447,3.40007 -6.13041,-3.42634 -15.31726,-12.44124 -18.45994,-18.11442 -2.45044,-4.42367 -2.76244,-5.88673 -2.76244,-12.95558 0,-10.268261 2.22684,-15.079468 10.90753,-23.566582 16.57362,-16.20397 53.88502,-27.938188 88.93622,-27.969924 19.3987,-0.01756 36.0098,2.514845 57.9848,8.839918 18.0879,5.206238 34.5139,12.147481 62.9527,26.602285 14.6953,7.469311 34.7344,17.647459 44.5313,22.618113 33.3114,16.90126 47.3011,19.68943 84.8437,16.90946 45.5052,-3.36959 98.8059,-15.49243 156.5625,-35.608913 l 19.2188,-6.69385 8.9062,0.333529 c 10.751,0.402612 17.1246,2.938515 24.3337,9.681762 6.5245,6.102958 9.6368,12.755542 9.5922,20.503242 -0.062,10.71244 -5.3302,18.90799 -15.3842,23.93206 -9.2086,4.60157 -19.3913,3.79749 -27.1845,-2.14661 -5.599,-4.27048 -8.2014,-9.22746 -8.2014,-15.62199 0,-8.80199 5.3133,-15.464888 14.2517,-17.87175 8.4459,-2.274234 20.207,4.22578 19.2911,10.66157 -0.4703,3.3043 -3.6592,2.99523 -7.1331,-0.69135 -3.9043,-4.14339 -8.115,-5.06223 -12.8662,-2.80762 -13.3464,6.33325 -6.0102,24.77165 9.856,24.77165 8.3502,0 15.1582,-4.27171 18.6512,-11.70268 4.989,-10.61359 0.04,-22.386311 -12.2171,-29.064771 -4.1567,-2.264815 -6.3918,-2.800201 -12.9894,-3.111468 -6.8936,-0.325235 -8.9173,-0.03275 -15,2.16795 -31.6584,11.454038 -71.522,23.159469 -98.7582,28.999139 -30.7262,6.58792 -50.3699,9.38335 -77.2241,10.98951 -40.0379,2.39467 -51.3104,-0.97536 -111.8302,-33.432447 -44.1086,-23.655702 -68.4225,-33.569718 -95.9282,-39.114796 -8.8912,-1.792453 -13.4595,-2.111987 -30.1655,-2.109975 -16.8894,0.0021 -21.1386,0.306593 -29.897,2.142872 -41.3347,8.666156 -65.30936,25.50039 -63.08336,44.295147 1.5359,12.968729 14.63846,24.553239 34.09656,30.146109 10.4254,2.99659 26.0679,2.95957 35.882,-0.0849 12.682,-3.93417 27.9249,-12.94909 30.5816,-18.08657 0.8635,-1.66978 1.8394,-2.40238 2.7401,-2.05679 0.7693,0.29524 1.3988,0.0228 1.3988,-0.60534 0,-2.78287 14.7496,2.48179 26.4841,9.4531 8.6911,5.16329 20.337,16.39222 26.0906,25.1564 5.0001,7.61637 6.2762,11.80801 1.9299,6.33887 -5.6461,-7.10475 -17.4945,-15.45976 -37.2846,-26.29157 -6.2556,-3.42389 -11.8931,-6.85118 -12.5281,-7.61618 -2.333,-2.81111 -2.6368,-0.29951 -0.5403,4.4662 7.079,16.09148 7.6138,38.57195 1.2867,54.0782 -1.116,2.7348 -1.2278,2.12716 -1.3163,-7.15558 z m -502.51246,-3.49895 c -13.7101,-3.32724 -22.17567,-14.02458 -22.32274,-28.20771 -0.10193,-9.82952 1.76594,-15.06279 7.38005,-20.6769 5.69714,-5.69714 10.58759,-7.36373 20.0407,-6.82958 5.1738,0.29235 7.24188,0.8875 10.1948,2.93386 9.29335,6.44031 10.57106,19.56407 2.5212,25.89609 -4.28073,3.36723 -12.90403,1.86126 -15.33326,-2.67779 -1.76771,-3.30299 -1.1476,-8.39235 1.32367,-10.86362 2.04337,-2.04337 2.13677,-2.44115 0.87054,-3.70738 -2.11617,-2.11616 -7.99704,-1.75926 -11.69274,0.70963 -4.4275,2.95777 -6.46354,7.47007 -6.46531,14.3285 -0.004,14.18092 10.77485,23.16561 26.06939,21.73082 13.49648,-1.2661 24.2197,-8.55281 47.82272,-32.49677 8.93051,-9.05953 17.0475,-17.5859 18.03775,-18.94752 l 1.80044,-2.47565 -7.2565,2.32833 c -11.30233,3.62648 -21.42588,1.84286 -29.4304,-5.185214 -6.94877,-6.101098 -10.5866,-19.733706 -8.35072,-31.293994 2.83388,-14.652262 13.26804,-23.270583 28.1135,-23.220973 10.15952,0.03395 18.2236,4.945259 22.22343,13.53485 3.32023,7.130158 2.71984,13.306181 -1.75827,18.086612 -4.13201,4.410974 -13.05805,4.404295 -16.1514,-0.01208 -3.49986,-4.996747 -0.37305,-14.754967 4.7279,-14.754967 3.12287,0 2.88367,-2.134262 -0.56439,-5.035609 -8.28653,-6.972656 -21.9238,-2.344088 -27.26637,9.254359 -1.99518,4.331437 -2.31411,12.961479 -0.6805,18.41396 1.55182,5.179529 6.62067,10.683874 11.58416,12.579453 5.91111,2.257481 12.60677,1.439184 27.23817,-3.328858 24.45229,-7.968443 45.34311,-11.092101 56.72612,-8.481859 15.43604,3.539643 30.39491,14.893648 36.59765,27.778144 l 3.20058,6.64833 2.98764,-6.2625 c 5.69392,-11.93528 15.85674,-20.639093 29.74354,-25.473476 6.20995,-2.161854 9.13641,-2.63092 16.45911,-2.638132 14.33276,-0.01412 32.92448,3.541481 50.15625,9.592201 6.73628,2.365359 9.97996,2.971293 16.08755,3.005231 7.02471,0.039 7.97845,-0.1881 11.66752,-2.778572 6.01543,-4.224053 8.81217,-10.329071 8.78882,-19.185146 -0.0259,-9.825494 -3.41423,-15.934342 -10.99401,-19.821285 -8.06844,-4.137524 -16.33037,-2.911302 -19.7847,2.936407 -1.6497,2.79272 -1.64864,2.797352 0.64046,2.797352 8.62464,0 9.67396,15.323923 1.20935,17.661113 -14.95716,4.129873 -21.35746,-15.493163 -9.06321,-27.787415 4.61232,-4.612321 8.2187,-6.086062 15.97947,-6.529986 18.00686,-1.030011 30.02282,10.803569 30.24083,29.781833 0.15555,13.540422 -5.27556,23.532674 -15.50854,28.532895 -7.53207,3.68046 -14.57948,4.01576 -23.59833,1.12277 -4.10289,-1.31608 -7.57652,-2.27616 -7.71919,-2.13349 -0.60664,0.60665 40.04039,40.02571 45.01729,43.6573 3.00483,2.19258 8.27826,5.31485 11.71875,6.93836 5.56073,2.62402 7.19248,2.95315 14.69294,2.9636 9.75694,0.0136 14.27034,-1.78132 19.04522,-7.57417 6.73584,-8.17173 6.10612,-23.31668 -1.16766,-28.08266 -3.42675,-2.24529 -9.9104,-2.79722 -12.25256,-1.04304 -1.86806,1.39906 -1.86741,1.4124 0.16491,3.58921 2.7464,2.94176 3.57646,6.77942 2.19028,10.12617 -1.52972,3.69306 -4.77694,5.65251 -9.36722,5.65251 -7.19952,0 -13.06838,-8.31067 -11.54526,-16.34881 1.74142,-9.19009 8.87651,-14.58869 19.28123,-14.58869 8.11284,0 14.244,2.26237 18.98822,7.00657 9.4275,9.42747 9.46125,28.5322 0.0694,39.50393 -8.50284,9.93364 -25.0815,13.09215 -39.90359,7.60229 -12.49469,-4.62783 -20.83759,-11.17632 -41.58446,-32.64042 l -16.452,-17.02075 1.8134,5.82646 c 4.17662,13.41951 1.5212,27.97493 -6.75579,37.03127 -5.87677,6.43013 -10.89287,8.49099 -20.49331,8.41965 -11.71019,-0.087 -19.46903,-4.99218 -24.18285,-15.28851 -7.77443,-16.98162 9.51897,-37.25242 25.10167,-29.42341 7.98498,4.0118 10.02642,14.60224 3.87434,20.09912 -3.80031,3.39557 -7.02084,3.36285 -10.49027,-0.10659 -2.56573,-2.56572 -3.33027,-5.34097 -2.90992,-10.5629 0.20962,-2.60409 -5.30375,-0.11504 -7.41523,3.34765 -2.14966,3.52532 -2.40053,11.68829 -0.47306,15.39282 5.42605,10.4287 20.94146,12.78121 30.27107,4.5898 5.30409,-4.657 7.17304,-9.87938 7.13731,-19.94378 -0.0864,-24.32782 -13.90936,-37.198441 -40.13181,-37.366769 -11.06144,-0.07101 -16.88706,1.462975 -25.78125,6.788639 -12.20725,7.30946 -18.7588,19.77984 -18.74084,35.67181 0.0142,12.56772 3.87345,19.40531 11.95447,21.1802 3.814,0.83769 9.14801,-0.86517 11.00221,-3.51242 1.82375,-2.60378 1.80033,-7.18148 -0.0503,-9.82356 -1.90427,-2.71873 -2.44289,-2.62788 -4.35636,0.73482 -3.81744,6.70868 -11.95944,0.4811 -9.45431,-7.23132 1.15127,-3.54434 6.26457,-6.14547 10.58258,-5.38334 7.81149,1.37874 12.6956,8.34404 11.97172,17.07308 -1.53932,18.56217 -27.71649,20.25855 -36.71218,2.37909 -0.83025,-1.65018 -1.54285,-3.75955 -1.58355,-4.6875 -0.0407,-0.92795 -0.67875,0.016 -1.41788,2.09769 -3.29578,9.2823 -11.05024,14.78029 -21.00811,14.89496 -10.92836,0.12584 -16.82962,-5.78977 -16.85958,-16.90057 -0.0194,-7.18619 2.40194,-11.19643 8.62485,-14.28471 3.89102,-1.93103 4.81865,-2.061 7.76623,-1.08822 4.01188,1.32404 6.4685,4.73492 6.4685,8.98114 0,6.43656 -7.63461,9.79255 -9.95992,4.37815 -1.51314,-3.52326 -1.43161,-3.47022 -3.14634,-2.04712 -2.43493,2.02082 -3.1835,5.0977 -2.15045,8.83911 1.84945,6.69815 11.72933,7.87169 18.22867,2.16519 7.48418,-6.5712 8.09037,-24.09058 1.31299,-37.94627 -5.34102,-10.91916 -16.33543,-18.670686 -30.69235,-21.639374 -13.41531,-2.773988 -28.92771,0.50236 -38.58225,8.148904 -10.52318,8.3345 -14.48232,29.83301 -7.9134,42.97049 2.2865,4.57287 3.43861,5.75052 7.77428,7.94657 3.3782,1.71109 6.55335,2.57813 9.44127,2.57813 6.27842,0 13.91241,-4.07618 16.67988,-8.90625 4.08942,-7.13728 1.54706,-17.10462 -5.04943,-19.79627 l -2.75731,-1.1251 0.33782,3.54234 c 0.8836,9.26545 -7.88614,14.62933 -13.97057,8.54489 -2.3344,-2.33486 -2.73992,-3.4708 -2.73992,-7.67636 0,-8.49666 5.82758,-13.99041 14.7846,-13.93766 4.22546,0.0248 10.24493,2.66436 13.06023,5.72679 3.52001,3.829 6.27499,11.14619 6.31024,16.75997 0.0878,13.97096 -14.34429,25.62752 -29.73753,24.01861 -13.1889,-1.37851 -22.43566,-11.00485 -25.06293,-26.09175 -1.09592,-6.29321 -0.19828,-17.14981 1.89148,-22.87697 0.77213,-2.11605 -0.49952,-1.16539 -5.77565,4.31776 -28.40267,29.51712 -34.21905,34.6899 -45.31419,40.30003 -5.91269,2.98968 -16.48429,5.64873 -22.03125,5.54146 -1.80469,-0.0349 -5.43977,-0.58729 -8.07796,-1.22753 z m -120.70186,-53.1195 c -1.91945,-1.50984 -2.47018,-2.76395 -2.47018,-5.625 0,-2.64785 -0.39496,-3.68196 -1.40625,-3.68196 -1.74845,0 -1.74946,-0.366928 -0.0103,-3.730116 0.76778,-1.484728 2.20955,-2.957729 3.20394,-3.273334 0.99439,-0.315606 2.8776,-1.415198 4.18493,-2.443538 l 2.37694,-1.869709 -2.37523,-4.419777 c -2.91581,-5.425655 -2.6615,-11.272864 0.64329,-14.790649 2.57857,-2.74476 6.07662,-2.967516 7.41218,-0.472009 1.38711,2.591833 1.21503,3.078101 -0.85657,2.420602 -2.05771,-0.653103 -5.67292,2.345426 -5.67292,4.705265 0,1.177262 0.36288,1.245028 1.99358,0.372299 1.44714,-0.774479 2.60354,-0.78903 4.21875,-0.05308 2.85204,1.299472 2.97984,5.466784 0.27318,8.907739 l -1.95199,2.481548 4.06137,1.824584 4.06136,1.824584 0.28251,-3.592747 c 0.38868,-4.943137 3.53146,-7.725418 9.35889,-8.28536 3.81821,-0.366882 4.96488,-0.07683 7.15969,1.81107 2.29812,1.976763 2.70678,3.17463 3.38785,9.930622 0.87871,8.716437 1.22487,9.589507 3.80206,9.589507 2.35727,0 3.35312,-2.533338 1.90644,-4.849816 -1.31934,-2.112621 -0.65056,-3.587684 1.62664,-3.587684 2.27671,0 3.88217,1.847672 3.88217,4.467881 0,3.554599 -1.63567,5.648399 -4.91408,6.290469 -1.68007,0.32903 -5.92387,1.88292 -9.43066,3.45308 -8.10759,3.63014 -12.59676,4.26123 -16.38328,2.30315 -5.54407,-2.86695 -7.64315,-9.21213 -4.27772,-12.930883 0.85621,-0.946106 1.38355,-1.852322 1.17187,-2.013816 -0.21169,-0.161494 -1.94016,-1.183585 -3.84106,-2.271313 -2.84714,-1.629181 -3.63989,-1.75634 -4.49865,-0.721591 -0.71924,0.866635 -0.73767,1.444468 -0.0594,1.863638 1.59181,0.983794 1.13199,4.216988 -1.03193,7.255945 -2.09138,2.93707 -2.60896,6.58471 -1.33562,9.41281 1.03839,2.30629 -1.38252,2.1433 -4.49174,-0.30241 z m 9.70297,-28.291335 c 0.0168,-3.022148 -1.37048,-3.370753 -2.79815,-0.703125 -1.2756,2.383487 0.59145,6.742949 1.96141,4.579781 0.45231,-0.714192 0.82884,-2.458687 0.83674,-3.876656 z m 585.95185,29.352205 c 0,-0.48519 0.4219,-1.1429 0.9375,-1.46158 1.553,-0.95978 1.0568,-5.68927 -0.8514,-8.11511 -2.2004,-2.797446 -2.5454,-4.369362 -1.583,-7.213634 1.1328,-3.347809 -0.4388,-3.880137 -4.6846,-1.586672 -3.8301,2.068988 -3.8343,2.077322 -2.1094,4.207491 4.9343,6.093525 -2.681,15.147845 -11.5478,13.729985 -2.0141,-0.32208 -6.3254,-1.84396 -9.5806,-3.38195 -3.2552,-1.538 -6.8461,-2.79636 -7.9797,-2.79636 -2.5634,0 -6.6635,-3.97056 -6.6635,-6.452925 0,-2.337188 2.4097,-4.797075 4.6991,-4.797075 2.5121,0 3.1272,1.560919 1.5197,3.855984 -1.678,2.395697 -1.0346,4.581516 1.3485,4.581516 2.444,0 3.36,-2.283619 3.9368,-9.813902 0.446,-5.823233 0.8173,-6.815867 3.4191,-9.140625 3.3303,-2.975578 7.9251,-3.445639 12.1788,-1.245934 2.9687,1.535158 5.2486,6.093159 4.493,8.982472 -0.4213,1.611028 -0.1752,1.822676 1.5296,1.315138 1.1174,-0.332686 2.9511,-1.184026 4.075,-1.891866 l 2.0433,-1.286982 -1.998,-3.647673 c -1.9148,-3.49582 -1.9307,-3.750405 -0.3811,-6.1154 1.8582,-2.835941 3.9679,-3.136923 6.4218,-0.916177 1.4785,1.338108 1.7144,1.355501 1.7144,0.12643 0,-2.603254 -3.7811,-6.481958 -5.7192,-5.866828 -1.1886,0.377226 -1.7808,0.114676 -1.7808,-0.789436 0,-2.176787 2.5722,-3.722794 5.127,-3.081573 5.2554,1.319034 6.9728,11.726957 2.9203,17.698604 -2.099,3.093237 -2.1506,3.438283 -0.7031,4.707437 0.8591,0.753246 2.5003,1.655312 3.647,2.004591 4.0147,1.222863 7.763,8.024224 4.4222,8.024224 -0.8039,0 -1.1839,0.44925 -0.8446,0.99833 1.3792,2.23159 -0.566,7.42192 -3.3143,8.84309 -3.1263,1.61668 -4.692,1.79234 -4.692,0.52641 z m -1.3395,-29.65449 c -0.3142,-1.251711 -0.9983,-2.27584 -1.5202,-2.27584 -1.6352,0 -2.1225,2.82626 -0.9361,5.429976 1.0368,2.275673 1.2221,2.34772 2.0828,0.809806 0.5196,-0.928455 0.6877,-2.712229 0.3735,-3.963942 z M 428.90625,105.9048 c -20.49061,-4.90255 -33.6979,-6.776053 -44.53125,-6.316913 -8.97406,0.380344 -9.57,0.304444 -6.74526,-0.859096 11.62563,-4.788694 35.63184,-5.904749 50.15805,-2.331863 C 436.81701,98.617762 450,103.75605 450,105.0545 c 0,0.44937 -0.73828,1.19822 -1.64063,1.66412 -3.86718,1.9967 -8.51988,1.80206 -19.45312,-0.81382 z m 667.66465,0.55764 c -1.972,-0.7092 -3.8069,-1.51096 -4.0776,-1.78167 -0.7355,-0.73542 7.7603,-4.776983 14.6942,-6.990354 16.9539,-5.411819 35.6351,-5.93683 52.9688,-1.488619 8.4005,2.155781 8.0027,2.859609 -1.3633,2.411812 -9.8996,-0.473306 -18.6789,0.658397 -38.4805,4.960361 -20.1443,4.37642 -19.7408,4.32734 -23.7416,2.88847 z m -919.72347,-2.8357 c -5.00468,-1.78412 -8.66067,-5.531071 -12.38117,-12.68924 -5.84882,-11.253 -7.65357,-12.348756 -13.05244,-7.924785 -8.89261,7.286825 -19.98006,10.011468 -32.29035,7.935068 -7.73534,-1.304734 -14.97526,-5.545586 -16.39131,-9.601365 -1.11676,-3.198589 -0.14344,-4.309848 2.04232,-2.331756 2.95628,2.675391 14.12107,7.414678 16.03582,6.806961 3.32855,-1.056442 9.56156,-6.16819 10.48601,-8.599674 0.71974,-1.893057 0.29066,-4.217162 -2.02215,-10.953148 -2.47494,-7.208163 -2.86043,-9.488389 -2.45597,-14.527249 0.61696,-7.685972 2.09518,-9.337979 2.90348,-3.244803 0.33212,2.503635 2.07748,7.62702 3.87859,11.3853 1.8011,3.75828 3.27474,7.431673 3.27474,8.163094 0,2.690086 1.74002,1.188575 5.03759,-4.34708 l 3.38173,-5.676935 -2.72756,-0.950835 c -5.28578,-1.84263 -7.87079,-13.099816 -3.16199,-13.769785 1.13355,-0.161282 2.93967,0.177003 4.01359,0.751747 l 1.95257,1.044987 -1.90422,2.674226 c -1.04732,1.470824 -1.86617,3.663789 -1.81966,4.873254 0.0701,1.823975 0.23189,1.689801 0.94846,-0.786689 1.6573,-5.727724 8.82134,-10.812183 10.77667,-7.648401 1.20027,1.94208 0.58429,9.237383 -0.99991,11.842102 l -1.54605,2.542016 1.93064,-2.213235 c 1.06185,-1.217279 1.93064,-3.221185 1.93064,-4.453125 0,-2.652629 2.27543,-2.980508 5.4164,-0.78048 2.63974,1.848945 2.63304,3.341616 -0.0258,5.747305 -3.12793,2.830129 -7.78915,4.154272 -10.71197,3.043015 -1.34128,-0.509954 -2.52222,-0.809917 -2.62431,-0.666584 -0.10207,0.143332 -1.54962,2.683819 -3.21677,5.645527 -4.54317,8.071033 -11.19402,16.524986 -15.48672,19.685305 l -3.81961,2.812021 6.65074,-0.446117 c 9.83236,-0.659537 15.8656,-3.782095 24.44404,-12.651242 3.87537,-4.00669 8.23732,-8.996519 9.69322,-11.088511 5.00511,-7.191837 13.19652,-13.245832 21.06031,-15.564949 1.56156,-0.460521 6.7392,-1.215953 11.50587,-1.678738 4.76667,-0.462786 9.93464,-1.473972 11.48438,-2.247081 5.31822,-2.653081 2.00568,4.484189 -3.99846,8.615143 -5.31935,3.659809 -9.91912,4.823979 -19.08499,4.830268 -4.6711,0.0032 -8.93398,0.554294 -11.01562,1.424059 -4.48001,1.871872 -4.29714,2.334393 0.49709,1.2572 5.95017,-1.336914 12.25096,0.441065 25.53411,7.205304 6.54099,3.330891 12.82625,6.038604 13.96725,6.01714 1.88201,-0.0354 1.76159,-0.318199 -1.29748,-3.046875 l -3.37203,-3.00785 6.405,-5.838023 c 8.61375,-7.851245 12.51585,-8.622437 18.32873,-3.622406 2.45352,2.110433 2.54044,2.436991 1.45074,5.450492 -1.44328,3.991333 -1.46057,5.896455 -0.0737,8.117221 1.47893,2.368151 0.49945,4.431904 -3.16335,6.665095 -3.89431,2.374343 -6.94743,2.375855 -10.83539,0.0053 -1.68825,-1.0293 -4.13715,-1.871473 -5.44201,-1.871473 -1.30487,0 -5.30868,-1.249462 -8.89736,-2.776583 -5.24739,-2.232966 -6.35564,-2.462403 -5.66045,-1.171875 1.82157,3.381569 8.28983,8.936731 13.45035,11.55162 4.24565,2.151319 14.71927,5.426744 17.61253,5.507981 0.27143,0.0076 0.33623,-1.63546 0.14399,-3.65129 -0.29767,-3.12135 0.1292,-4.187533 2.87708,-7.185986 3.14146,-3.427924 3.28542,-3.479645 5.45523,-1.959853 2.74284,1.921164 5.46985,1.989555 8.02307,0.201211 1.70152,-1.191795 2.19122,-1.184765 3.96396,0.05691 2.93799,2.057854 5.09429,6.750252 4.49011,9.771128 -0.41579,2.078943 -0.20471,2.523393 1.08066,2.275446 0.87855,-0.169472 4.33956,-0.782842 7.69112,-1.363042 3.35156,-0.580201 9.31008,-1.905379 13.24116,-2.944842 5.72383,-1.513509 7.35767,-2.351425 8.20312,-4.206991 1.52551,-3.34814 1.31354,-5.43468 -0.94014,-9.254395 -1.59888,-2.709892 -1.8768,-4.251427 -1.39725,-7.750086 0.84043,-6.131605 2.08954,-6.780133 2.80271,-1.455135 0.33235,2.481618 1.44213,5.777657 2.46617,7.324532 2.25083,3.400048 2.3616,6.181904 0.39737,9.980306 l -1.47687,2.855942 3.11749,-0.657634 c 4.93751,-1.041567 8.84295,-3.176219 10.09656,-5.518618 1.61806,-3.023369 0.9315,-6.565333 -1.35407,-6.985677 -3.01595,-0.554669 -4.21875,-2.04482 -4.21875,-5.226611 0,-5.482666 4.09395,-7.002361 7.43196,-2.758777 2.26165,2.87523 2.43956,4.492081 0.67557,6.139891 -0.84585,0.790141 -1.11567,2.530778 -0.81114,5.23265 0.82199,7.292643 -2.2053,8.995662 -26.38444,14.842733 -10.55054,2.551361 -10.98213,2.747497 -8.4375,3.834438 3.67978,1.571825 11.5596,1.489483 14.40055,-0.150483 9.28652,-5.360728 10.00124,-5.57424 14.24797,-4.256403 l 4.03328,1.251604 -3.63866,0.797359 c -2.00127,0.438547 -5.02368,2.013413 -6.71647,3.499702 -6.69187,5.875534 -16.53536,6.32995 -24.62799,1.136926 -6.56743,-4.214312 -10.00964,-3.517731 -16.7542,3.390465 -2.73978,2.806265 -4.98143,5.547751 -4.98143,6.092201 0,0.54445 -2.5171,-1.75707 -5.59357,-5.114483 -5.12813,-5.596454 -5.99228,-6.157275 -10.38548,-6.740054 -11.80873,-1.56648 -23.35177,-8.05882 -30.0041,-16.875694 -5.6678,-7.512011 -7.11983,-8.647588 -13.26047,-10.370565 -9.38876,-2.634352 -16.64468,-0.363877 -24.3939,7.633183 l -3.48125,3.592603 6.29375,-0.300802 c 5.35148,-0.255766 6.78169,0.02829 9.55271,1.89731 4.06864,2.744246 7.24034,7.373978 8.47652,12.373216 2.27436,9.197795 7.26214,13.445266 14.25376,12.138156 2.1384,-0.39979 2.78809,-0.27383 2.13578,0.41408 -1.01652,1.07199 -14.04194,3.9726 -17.5386,3.90564 -1.1819,-0.0226 -3.77849,-0.62208 -5.77022,-1.33211 z m 1164.78787,-0.0816 c -3.3115,-0.71819 -6.4755,-1.79381 -7.0313,-2.39026 -0.7537,-0.80907 -0.4006,-0.94145 1.3906,-0.5213 3.5275,0.82742 8.9636,-0.981232 11.0956,-3.691592 1.0247,-1.302628 2.333,-4.632251 2.9074,-7.399154 1.2198,-5.876107 5.3002,-11.965704 9.4585,-14.116038 2.0592,-1.064845 4.7394,-1.423302 9.0138,-1.205508 l 6.0831,0.309959 -5.5649,-5.227045 c -8.4558,-7.942482 -15.5411,-9.14573 -26.4943,-4.499381 -2.98,1.26414 -4.9863,2.995705 -6.8089,5.876688 -3.4806,5.501664 -10.6683,12.082588 -16.3305,14.951808 -4.9965,2.531865 -14.585,5.304143 -18.3458,5.304143 -2.2215,0 -8.8902,6.084113 -11.8286,10.79167 -0.9495,1.52123 -1.2676,1.60934 -1.7277,0.47848 -0.3101,-0.76236 -2.618,-3.558022 -5.1285,-6.212581 -6.1619,-6.515261 -9.9273,-7.213094 -16.586,-3.073829 -8.4144,5.230632 -16.7339,4.866301 -24.6468,-1.079321 -2.7207,-2.044306 -6.0128,-3.743899 -7.3158,-3.776876 -2.3038,-0.05831 -2.2878,-0.100445 0.5834,-1.531595 3.5218,-1.755465 6.1819,-1.233266 11.1787,2.194497 4.3875,3.0098 11.1361,3.867612 17.2825,2.196787 l 4.2115,-1.144797 -15.4688,-3.949251 c -21.366,-5.454847 -24.2635,-7.252395 -23.1135,-14.33905 0.343,-2.114066 0.028,-4.013482 -0.9004,-5.430634 -1.2898,-1.968413 -1.2745,-2.413788 0.158,-4.599975 1.8974,-2.89578 5.8688,-4.183244 7.0672,-2.291038 1.1985,1.892437 1.0322,6.836475 -0.2738,8.142513 -0.6187,0.61875 -1.8844,1.125 -2.8125,1.125 -1.3386,0 -1.6875,0.761369 -1.6875,3.681956 0,2.859521 0.5509,4.115262 2.4661,5.621821 2.4754,1.947073 9.5243,4.330741 10.3539,3.501212 0.2438,-0.243785 -0.2207,-1.727124 -1.0322,-3.296311 -1.971,-3.811737 -1.8776,-4.863558 0.8572,-9.647359 1.3329,-2.331667 2.3373,-5.586594 2.3438,-7.595694 0.012,-3.876179 1.3458,-4.715983 2.2328,-1.40625 1.1302,4.217124 0.5654,9.429343 -1.3591,12.543238 -2.3396,3.785556 -1.7612,8.188009 1.3283,10.10996 2.0475,1.273712 14.8411,4.514315 23.7164,6.007315 l 4.8134,0.809714 0.051,-3.733282 c 0.04,-2.90168 0.7301,-4.433289 3.0974,-6.875797 2.8592,-2.949952 3.1767,-3.05682 5.1803,-1.744019 2.7089,1.774947 5.438,1.777346 8.1397,0.0071 1.858,-1.217359 2.3661,-1.221415 4.0635,-0.03245 2.7908,1.954696 5.1677,7.448794 4.4536,10.294026 -0.7208,2.87198 -0.9065,2.863055 8.2373,0.395775 8.3197,-2.244894 17.0464,-7.411701 20.7751,-12.30024 1.3578,-1.780081 2.4686,-3.473733 2.4686,-3.763672 0,-0.289939 -2.8477,0.687687 -6.3281,2.172503 -3.4805,1.484815 -7.5272,2.711077 -8.9928,2.725027 -1.4655,0.01395 -3.7373,0.869114 -5.0483,1.900364 -2.882,2.267011 -7.0311,2.409077 -10.5007,0.359546 -4.1965,-2.478926 -5.0444,-4.580649 -3.2489,-8.052821 1.4445,-2.793417 1.433,-3.175592 -0.1856,-6.181081 l -1.7251,-3.203565 3.589,-3.28908 c 5.3173,-4.872987 8.8682,-4.129551 17.3645,3.635556 l 6.5103,5.950195 -3.4515,3.112701 -3.4516,3.112702 3.2813,-0.53806 c 1.8047,-0.295932 8.7656,-3.311263 15.4688,-6.700733 12.7094,-6.426539 17.9618,-7.625981 25.3124,-5.780497 l 2.8125,0.706114 -2.8125,-1.595864 c -1.9736,-1.119846 -6.0339,-1.767387 -13.6126,-2.1709 -9.4577,-0.503569 -11.4045,-0.904055 -15.6641,-3.222431 -7.1151,-3.872547 -13.6048,-13.870614 -6.6784,-10.288824 1.6378,0.846891 6.9805,1.876096 12.0045,2.312487 15.2627,1.325745 23.3196,5.633694 31.9981,17.10904 6.5702,8.687885 17.7548,19.08074 23.0069,21.378562 2.5335,1.108395 7.4956,2.214225 11.1331,2.481078 l 6.5625,0.481427 -3.5147,-2.829629 c -4.7343,-3.811446 -10.1326,-10.468273 -13.9559,-17.209289 -5.0535,-8.909979 -4.7574,-8.623929 -7.5912,-7.332768 -2.1354,0.972984 -3.1129,0.817676 -6.9393,-1.102552 -5.9672,-2.994553 -7.1372,-5.0586 -4.2231,-7.450048 2.7667,-2.270535 5.709,-2.358178 5.8963,-0.175641 0.078,0.902344 0.3938,-0.214957 0.7031,-2.482891 0.7395,-5.422708 2.849,-6.816669 6.388,-4.221237 1.4365,1.053546 3.3495,3.362111 4.251,5.130146 0.9016,1.768034 1.6398,2.533219 1.6406,1.700413 8e-4,-0.832808 -0.8556,-2.603799 -1.9031,-3.935535 -1.8883,-2.400487 -1.8888,-2.429835 -0.062,-3.407681 3.3381,-1.786492 6.5606,-1.215078 7.1854,1.274098 0.6484,2.583746 -2.5663,10.681019 -4.4683,11.254448 -4.4124,1.330368 -4.5934,1.465309 -3.549,2.645771 0.5757,0.650701 2.3349,3.471112 3.9092,6.267578 l 2.8626,5.084485 1.1685,-3.209485 c 0.6427,-1.765216 2.2958,-5.602707 3.6738,-8.527757 1.3778,-2.92505 2.7589,-7.460206 3.069,-10.078125 0.3102,-2.617885 0.8792,-4.759818 1.2647,-4.759818 0.3854,0 1.207,2.683436 1.8258,5.963192 1.0764,5.704418 0.9996,6.323297 -1.7687,14.26145 -1.5918,4.564041 -2.8941,9.417462 -2.8941,10.785377 0,3.399541 2.9531,6.874477 7.8616,9.25061 l 4.1043,1.986858 5.0327,-1.978965 c 2.7679,-1.088431 6.3756,-3.000366 8.017,-4.248744 3.7082,-2.820345 4.0469,-2.820267 4.0469,9.19e-4 0,3.082738 -6.3557,8.402791 -11.9924,10.038309 -2.4276,0.704388 -8.4217,1.264926 -13.3201,1.245639 -7.5637,-0.02978 -9.6835,-0.398947 -14.0625,-2.449021 -2.8359,-1.327674 -6.7963,-3.736767 -8.8008,-5.353539 -2.0044,-1.616772 -4.3567,-2.939585 -5.2272,-2.939585 -2.2753,0 -4.9022,3.247436 -8.9659,11.083822 -3.8732,7.468994 -7.2954,10.670878 -13.0998,12.256388 -4.6897,1.281 -6.9128,1.2164 -14.4585,-0.42007 z M 771.21944,97.399809 c -0.21296,-0.718331 -1.32139,-7.634184 -2.46317,-15.368559 -1.549,-10.492935 -3.38884,-18.108008 -7.24813,-30 -6.17038,-19.013371 -7.18694,-27.617693 -4.45522,-37.709523 3.11646,-11.5131185 11.38095,-16.6228061 20.41938,-12.6246819 3.48567,1.5418786 4.59886,2.7325475 6.85992,7.3373791 2.51286,5.1176738 2.69529,6.2404788 2.64478,16.2780758 -0.0494,9.813591 -0.37487,11.790982 -3.62646,22.03125 -5.45164,17.168892 -6.01231,19.498061 -8.56825,35.594229 -1.30736,8.233077 -2.5567,15.148924 -2.77632,15.368562 -0.21964,0.219628 -0.57358,-0.1884 -0.78653,-0.906732 z M 753.75,85.396686 c 0,-0.469324 -1.68186,-2.98102 -3.73746,-5.581547 -3.87662,-4.904305 -12.13349,-11.037603 -17.82504,-13.240653 -8.00199,-3.097361 -15.85875,-7.643521 -18.59446,-10.759313 -2.53838,-2.891067 -2.96804,-4.10381 -2.96804,-8.377615 0,-5.576687 1.97003,-8.968953 6.59872,-11.362539 3.69158,-1.908991 6.2136,-1.733094 11.68538,0.814993 10.49636,4.887932 23.28549,24.021112 26.61022,39.810249 1.05669,5.018203 0.61375,9.549739 -0.93345,9.549739 -0.45973,0 -0.83587,-0.383992 -0.83587,-0.853314 z m 32.34673,-1.20461 c -1.4534,-5.656853 3.74847,-20.412645 11.0882,-31.453169 5.51953,-8.30257 12.13051,-14.46436 17.87087,-16.656621 4.09406,-1.563536 4.90761,-1.601526 8.38052,-0.391338 5.19069,1.808773 8.12618,6.236657 8.12618,12.257491 0,7.026464 -3.87007,10.662869 -19.22369,18.062975 -12.46958,6.010063 -17.33503,9.67459 -23.13694,17.426086 l -2.45597,3.28125 -0.64917,-2.526674 z M 257.14519,76.523724 c -3.4044,-3.1199 -3.43021,-3.197449 -1.86123,-5.592016 2.00399,-3.058484 2.01208,-5.225891 0.0301,-8.055629 -1.51833,-2.167726 -1.46748,-2.314312 1.86123,-5.364849 2.46932,-2.262994 4.30443,-3.13623 6.59078,-3.13623 3.01477,0 7.64675,2.655889 9.32019,5.344024 0.40838,0.655998 2.61563,2.622964 4.90502,4.371035 l 4.16251,3.178312 -3.80338,2.635741 c -2.09186,1.449657 -4.29912,3.306398 -4.90501,4.126091 -4.68456,6.337509 -11.04412,7.310362 -16.3002,2.493521 z m 1009.32291,2.394759 c -0.8254,-0.350478 -4.2514,-3.168483 -7.6134,-6.262233 l -6.1126,-5.625 6.4141,-5.913873 c 7.6104,-7.016957 11.1006,-8.088504 16.1603,-4.961462 4.1356,2.555934 4.7271,4.186234 2.8414,7.832617 -1.406,2.718921 -1.399,3.150185 0.097,5.927591 1.2726,2.362959 1.3903,3.411674 0.5577,4.967401 -1.98,3.699574 -8.2825,5.75969 -12.3442,4.034959 z M 244.04566,72.113446 c -1.12644,-0.416726 -2.54094,-1.678594 -3.14333,-2.804152 -2.298,-4.293855 2.72914,-9.239756 7.28278,-7.165086 6.01857,2.742106 2.06469,12.264436 -4.13945,9.969238 z m 1039.74924,-2.3081 c -1.2573,-1.918921 -1.3541,-2.835777 -0.498,-4.714892 2.5418,-5.5787 10.3958,-3.992501 10.4388,2.108206 0.036,5.031 -7.1225,6.907941 -9.9408,2.606686 z M 236.37174,55.776679 c -2.22387,-2.532849 -2.93424,-4.234911 -2.93424,-7.030459 0,-3.237959 0.76869,-4.535618 6.29266,-10.622933 l 6.29267,-6.934396 3.04093,3.858679 c 1.67251,2.122274 4.31789,5.081855 5.87862,6.576846 4.97036,4.760991 4.4837,12.07577 -1.06184,15.960014 -1.83457,1.284989 -2.30704,1.291405 -4.19112,0.05691 -2.71725,-1.780411 -5.43332,-1.766171 -8.19441,0.04297 -2.08399,1.365482 -2.32981,1.273954 -5.12327,-1.907622 z m 1042.56216,0.194314 c -2.3973,-2.473387 -2.9964,-3.873457 -2.9964,-7.002408 0,-3.512155 0.6413,-4.617547 6.2893,-10.841642 l 6.2894,-6.93074 2.4962,3.386274 c 1.3729,1.86245 3.8064,4.616015 5.4077,6.119034 4.2069,3.948615 5.3566,8.061382 3.4038,12.176642 -2.1611,4.554013 -5.1067,6.397709 -7.4656,4.672787 -2.3036,-1.68444 -5.2822,-1.654735 -7.5698,0.0755 -2.4573,1.858682 -2.4453,1.862098 -5.8546,-1.655442 z"
     id="path4427"
     inkscape:connector-curvature="0" />
</svg>
